<mxfile host="app.diagrams.net" modified="2024-01-06T23:21:25.962Z" agent="Mozilla/5.0 (Windows NT 10.0; Win64; x64) AppleWebKit/537.36 (KHTML, like Gecko) Chrome/119.0.0.0 Safari/537.36 OPR/105.0.0.0" etag="7gdPVOGY-IVep-6glU4q" version="22.1.16" type="device">
  <diagram name="Page-1" id="-X7iiQNvh5ci5fDWc8oH">
    <mxGraphModel dx="5820" dy="1910" grid="1" gridSize="10" guides="1" tooltips="1" connect="1" arrows="1" fold="1" page="1" pageScale="1" pageWidth="850" pageHeight="1100" math="0" shadow="0">
      <root>
        <mxCell id="0" />
        <mxCell id="1" parent="0" />
        <mxCell id="8HtIomE0olUPSLRhpvDs-49" style="edgeStyle=orthogonalEdgeStyle;rounded=0;orthogonalLoop=1;jettySize=auto;html=1;" edge="1" parent="1" source="8HtIomE0olUPSLRhpvDs-50" target="8HtIomE0olUPSLRhpvDs-52">
          <mxGeometry relative="1" as="geometry" />
        </mxCell>
        <mxCell id="8HtIomE0olUPSLRhpvDs-50" value="Mulai" style="strokeWidth=1;html=1;shape=mxgraph.flowchart.terminator;whiteSpace=wrap;" vertex="1" parent="1">
          <mxGeometry x="-1108" y="1184" width="100" height="60" as="geometry" />
        </mxCell>
        <mxCell id="8HtIomE0olUPSLRhpvDs-51" style="edgeStyle=orthogonalEdgeStyle;rounded=0;orthogonalLoop=1;jettySize=auto;html=1;entryX=0.5;entryY=0;entryDx=0;entryDy=0;" edge="1" parent="1" source="8HtIomE0olUPSLRhpvDs-52" target="8HtIomE0olUPSLRhpvDs-53">
          <mxGeometry relative="1" as="geometry" />
        </mxCell>
        <mxCell id="8HtIomE0olUPSLRhpvDs-52" value="Mengisikan bahasa yang paling sering [Nama] gunakan di rumah saat anak berusia 0-6 tahun" style="rounded=0;whiteSpace=wrap;html=1;" vertex="1" parent="1">
          <mxGeometry x="-1163" y="1330" width="210" height="60" as="geometry" />
        </mxCell>
        <mxCell id="8HtIomE0olUPSLRhpvDs-53" value="Mengisikan&amp;nbsp;bahasa yang paling sering [Nama] gunakan di rumah hingga saat ini" style="rounded=0;whiteSpace=wrap;html=1;" vertex="1" parent="1">
          <mxGeometry x="-1163" y="1445" width="210" height="60" as="geometry" />
        </mxCell>
        <mxCell id="8HtIomE0olUPSLRhpvDs-54" style="edgeStyle=orthogonalEdgeStyle;rounded=0;orthogonalLoop=1;jettySize=auto;html=1;entryX=0.5;entryY=0;entryDx=0;entryDy=0;fontFamily=Helvetica;fontSize=12;exitX=0.5;exitY=1;exitDx=0;exitDy=0;" edge="1" parent="1" source="8HtIomE0olUPSLRhpvDs-53" target="8HtIomE0olUPSLRhpvDs-56">
          <mxGeometry relative="1" as="geometry">
            <mxPoint x="-1035" y="1550.0000000000005" as="sourcePoint" />
          </mxGeometry>
        </mxCell>
        <mxCell id="8HtIomE0olUPSLRhpvDs-55" style="edgeStyle=orthogonalEdgeStyle;rounded=0;orthogonalLoop=1;jettySize=auto;html=1;entryX=0.5;entryY=0;entryDx=0;entryDy=0;fontFamily=Helvetica;fontSize=12;" edge="1" parent="1" source="8HtIomE0olUPSLRhpvDs-56" target="8HtIomE0olUPSLRhpvDs-58">
          <mxGeometry relative="1" as="geometry" />
        </mxCell>
        <mxCell id="8HtIomE0olUPSLRhpvDs-56" value="Mengisikan&amp;nbsp;bahasa yang paling sering [Nama] gunakan dalam pergaulan (tempat bekerja/sekolah/lingkungan)" style="rounded=0;whiteSpace=wrap;html=1;verticalAlign=top;" vertex="1" parent="1">
          <mxGeometry x="-1163" y="1560" width="210" height="70" as="geometry" />
        </mxCell>
        <mxCell id="8HtIomE0olUPSLRhpvDs-57" style="edgeStyle=orthogonalEdgeStyle;rounded=0;orthogonalLoop=1;jettySize=auto;html=1;entryX=0.5;entryY=0;entryDx=0;entryDy=0;fontFamily=Helvetica;fontSize=12;entryPerimeter=0;" edge="1" parent="1" source="8HtIomE0olUPSLRhpvDs-58">
          <mxGeometry relative="1" as="geometry">
            <Array as="points">
              <mxPoint x="-1035" y="1830" />
              <mxPoint x="-860" y="1830" />
              <mxPoint x="-860" y="1140" />
              <mxPoint x="-468" y="1140" />
            </Array>
            <mxPoint x="-468" y="1170" as="targetPoint" />
          </mxGeometry>
        </mxCell>
        <mxCell id="8HtIomE0olUPSLRhpvDs-58" value="Mengisikan platform online untuk mempelajari suatu bahasa" style="rounded=0;whiteSpace=wrap;html=1;verticalAlign=top;align=center;" vertex="1" parent="1">
          <mxGeometry x="-1163" y="1680" width="210" height="60" as="geometry" />
        </mxCell>
        <mxCell id="8HtIomE0olUPSLRhpvDs-79" style="edgeStyle=orthogonalEdgeStyle;rounded=0;orthogonalLoop=1;jettySize=auto;html=1;exitX=0.923;exitY=0.56;exitDx=0;exitDy=0;exitPerimeter=0;" edge="1" parent="1" source="8HtIomE0olUPSLRhpvDs-167">
          <mxGeometry relative="1" as="geometry">
            <mxPoint x="-387" y="1770" as="sourcePoint" />
            <mxPoint x="20" y="1130" as="targetPoint" />
            <Array as="points">
              <mxPoint x="-382" y="1830" />
              <mxPoint x="-286" y="1830" />
              <mxPoint x="-286" y="1140" />
              <mxPoint x="20" y="1140" />
            </Array>
          </mxGeometry>
        </mxCell>
        <mxCell id="8HtIomE0olUPSLRhpvDs-92" value="&lt;b style=&quot;font-size: 20px;&quot;&gt;BLOK II&lt;/b&gt;" style="text;html=1;strokeColor=none;fillColor=none;align=center;verticalAlign=middle;whiteSpace=wrap;rounded=0;fontSize=20;" vertex="1" parent="1">
          <mxGeometry x="-464" y="1030" width="100" height="40" as="geometry" />
        </mxCell>
        <mxCell id="8HtIomE0olUPSLRhpvDs-95" value="TIDAK" style="edgeLabel;html=1;align=center;verticalAlign=middle;resizable=0;points=[];fontSize=12;fontFamily=Helvetica;" connectable="0" vertex="1" parent="1">
          <mxGeometry x="-570" y="1359.9966666666667" as="geometry">
            <mxPoint x="-319" y="1215" as="offset" />
          </mxGeometry>
        </mxCell>
        <mxCell id="8HtIomE0olUPSLRhpvDs-97" value="YA" style="edgeLabel;html=1;align=center;verticalAlign=middle;resizable=0;points=[];fontSize=12;fontFamily=Helvetica;" connectable="0" vertex="1" parent="1">
          <mxGeometry x="-539.9966666666669" y="1870" as="geometry">
            <mxPoint x="-139" y="264" as="offset" />
          </mxGeometry>
        </mxCell>
        <mxCell id="8HtIomE0olUPSLRhpvDs-98" style="edgeStyle=orthogonalEdgeStyle;rounded=0;orthogonalLoop=1;jettySize=auto;html=1;entryX=0.5;entryY=0;entryDx=0;entryDy=0;" edge="1" parent="1" source="8HtIomE0olUPSLRhpvDs-99" target="8HtIomE0olUPSLRhpvDs-100">
          <mxGeometry relative="1" as="geometry" />
        </mxCell>
        <mxCell id="8HtIomE0olUPSLRhpvDs-99" value="Mengisikan&amp;nbsp;bahasa yang paling sering [Nama] gunakan di media sosial&amp;nbsp;" style="rounded=0;whiteSpace=wrap;html=1;" vertex="1" parent="1">
          <mxGeometry x="-580" y="1170" width="210" height="60" as="geometry" />
        </mxCell>
        <mxCell id="8HtIomE0olUPSLRhpvDs-100" value="Mengisikan Seberapa sering [Nama] menggunakan bahasa daerah di rumah, pergaulan, atau media sosial" style="rounded=0;whiteSpace=wrap;html=1;" vertex="1" parent="1">
          <mxGeometry x="-580" y="1285" width="210" height="60" as="geometry" />
        </mxCell>
        <mxCell id="8HtIomE0olUPSLRhpvDs-101" style="edgeStyle=orthogonalEdgeStyle;rounded=0;orthogonalLoop=1;jettySize=auto;html=1;entryX=0.5;entryY=0;entryDx=0;entryDy=0;fontFamily=Helvetica;fontSize=12;exitX=0.5;exitY=1;exitDx=0;exitDy=0;" edge="1" parent="1" source="8HtIomE0olUPSLRhpvDs-100">
          <mxGeometry relative="1" as="geometry">
            <mxPoint x="-452" y="1390.0000000000005" as="sourcePoint" />
            <mxPoint x="-475" y="1400" as="targetPoint" />
          </mxGeometry>
        </mxCell>
        <mxCell id="8HtIomE0olUPSLRhpvDs-127" style="edgeStyle=orthogonalEdgeStyle;rounded=0;orthogonalLoop=1;jettySize=auto;html=1;fontFamily=Helvetica;fontSize=12;" edge="1" parent="1" source="8HtIomE0olUPSLRhpvDs-129">
          <mxGeometry relative="1" as="geometry">
            <mxPoint x="-640" y="1445" as="targetPoint" />
          </mxGeometry>
        </mxCell>
        <mxCell id="8HtIomE0olUPSLRhpvDs-128" value="YA" style="edgeLabel;html=1;align=center;verticalAlign=middle;resizable=0;points=[];fontSize=12;fontFamily=Helvetica;" connectable="0" vertex="1" parent="8HtIomE0olUPSLRhpvDs-127">
          <mxGeometry x="-0.235" y="5" relative="1" as="geometry">
            <mxPoint x="1" as="offset" />
          </mxGeometry>
        </mxCell>
        <mxCell id="8HtIomE0olUPSLRhpvDs-129" value="Apa [Nama] mengetahui dongeng/cerita rakyat yang ada di Indonesia?" style="strokeWidth=1;shape=mxgraph.flowchart.decision;strokeColor=default;align=center;verticalAlign=middle;whiteSpace=wrap;spacingTop=3;" vertex="1" parent="1">
          <mxGeometry x="-580" y="1400" width="210" height="90" as="geometry" />
        </mxCell>
        <mxCell id="8HtIomE0olUPSLRhpvDs-130" style="edgeStyle=orthogonalEdgeStyle;rounded=0;orthogonalLoop=1;jettySize=auto;html=1;fontFamily=Helvetica;fontSize=12;entryX=0.5;entryY=0;entryDx=0;entryDy=0;entryPerimeter=0;" edge="1" parent="1" source="8HtIomE0olUPSLRhpvDs-129" target="8HtIomE0olUPSLRhpvDs-133">
          <mxGeometry relative="1" as="geometry">
            <mxPoint x="-452" y="1620" as="targetPoint" />
          </mxGeometry>
        </mxCell>
        <mxCell id="8HtIomE0olUPSLRhpvDs-131" value="TIDAK" style="edgeLabel;html=1;align=center;verticalAlign=middle;resizable=0;points=[];fontSize=12;fontFamily=Helvetica;" connectable="0" vertex="1" parent="8HtIomE0olUPSLRhpvDs-130">
          <mxGeometry x="-0.2976" y="3" relative="1" as="geometry">
            <mxPoint as="offset" />
          </mxGeometry>
        </mxCell>
        <mxCell id="8HtIomE0olUPSLRhpvDs-133" value="apa [Nama] pernah mengunjungi tempat peninggalan sejarah/warisan budaya?" style="strokeWidth=1;shape=mxgraph.flowchart.decision;strokeColor=default;align=center;verticalAlign=middle;whiteSpace=wrap;spacingTop=3;" vertex="1" parent="1">
          <mxGeometry x="-575" y="1590" width="200" height="120" as="geometry" />
        </mxCell>
        <mxCell id="8HtIomE0olUPSLRhpvDs-134" value="TIDAK" style="edgeLabel;html=1;align=center;verticalAlign=middle;resizable=0;points=[];fontSize=12;fontFamily=Helvetica;" connectable="0" vertex="1" parent="1">
          <mxGeometry x="-475" y="1499.9966666666667" as="geometry">
            <mxPoint x="-560" y="984" as="offset" />
          </mxGeometry>
        </mxCell>
        <mxCell id="8HtIomE0olUPSLRhpvDs-135" value="TIDAK" style="edgeLabel;html=1;align=center;verticalAlign=middle;resizable=0;points=[];fontSize=12;fontFamily=Helvetica;" connectable="0" vertex="1" parent="1">
          <mxGeometry x="-447" y="1539.9966666666667" as="geometry">
            <mxPoint x="-449" y="1119" as="offset" />
          </mxGeometry>
        </mxCell>
        <mxCell id="8HtIomE0olUPSLRhpvDs-136" value="TIDAK" style="edgeLabel;html=1;align=center;verticalAlign=middle;resizable=0;points=[];fontSize=12;fontFamily=Helvetica;" connectable="0" vertex="1" parent="1">
          <mxGeometry x="-577" y="1589.9966666666667" as="geometry">
            <mxPoint x="-319" y="1215" as="offset" />
          </mxGeometry>
        </mxCell>
        <mxCell id="8HtIomE0olUPSLRhpvDs-137" value="Mengisi status pengetahuan tentang dongeng/cerita rakyat yang ada di Indonesia" style="rounded=0;whiteSpace=wrap;html=1;" vertex="1" parent="1">
          <mxGeometry x="-850" y="1410" width="210" height="60" as="geometry" />
        </mxCell>
        <mxCell id="8HtIomE0olUPSLRhpvDs-138" style="edgeStyle=orthogonalEdgeStyle;rounded=0;orthogonalLoop=1;jettySize=auto;html=1;entryX=0.5;entryY=0;entryDx=0;entryDy=0;fontFamily=Helvetica;fontSize=12;exitX=0.5;exitY=1;exitDx=0;exitDy=0;" edge="1" parent="1">
          <mxGeometry relative="1" as="geometry">
            <mxPoint x="-745.53" y="1472.5" as="sourcePoint" />
            <mxPoint x="-745.53" y="1527.5" as="targetPoint" />
          </mxGeometry>
        </mxCell>
        <mxCell id="8HtIomE0olUPSLRhpvDs-139" value="Mengisi sarana/media yang paling sering [Nama] gunakan untuk membaca/mengetahui dongeng/cerita rakyat yang ada di Indonesia" style="rounded=0;whiteSpace=wrap;html=1;" vertex="1" parent="1">
          <mxGeometry x="-850" y="1530" width="210" height="60" as="geometry" />
        </mxCell>
        <mxCell id="8HtIomE0olUPSLRhpvDs-140" style="edgeStyle=orthogonalEdgeStyle;rounded=0;orthogonalLoop=1;jettySize=auto;html=1;fontFamily=Helvetica;fontSize=12;" edge="1" parent="1">
          <mxGeometry relative="1" as="geometry">
            <mxPoint x="-633" y="1655" as="targetPoint" />
            <mxPoint x="-573" y="1655" as="sourcePoint" />
          </mxGeometry>
        </mxCell>
        <mxCell id="8HtIomE0olUPSLRhpvDs-141" value="YA" style="edgeLabel;html=1;align=center;verticalAlign=middle;resizable=0;points=[];fontSize=12;fontFamily=Helvetica;" connectable="0" vertex="1" parent="8HtIomE0olUPSLRhpvDs-140">
          <mxGeometry x="-0.235" y="5" relative="1" as="geometry">
            <mxPoint x="1" as="offset" />
          </mxGeometry>
        </mxCell>
        <mxCell id="8HtIomE0olUPSLRhpvDs-142" value="TIDAK" style="edgeLabel;html=1;align=center;verticalAlign=middle;resizable=0;points=[];fontSize=12;fontFamily=Helvetica;" connectable="0" vertex="1" parent="1">
          <mxGeometry x="-570" y="1799.9966666666667" as="geometry">
            <mxPoint x="-319" y="1215" as="offset" />
          </mxGeometry>
        </mxCell>
        <mxCell id="8HtIomE0olUPSLRhpvDs-143" value="Mengisi status pengunjungan tempat peninggalan sejarah/warisan budaya?" style="rounded=0;whiteSpace=wrap;html=1;" vertex="1" parent="1">
          <mxGeometry x="-843" y="1620" width="210" height="60" as="geometry" />
        </mxCell>
        <mxCell id="8HtIomE0olUPSLRhpvDs-154" style="edgeStyle=orthogonalEdgeStyle;rounded=0;orthogonalLoop=1;jettySize=auto;html=1;fontFamily=Helvetica;fontSize=12;entryX=0.5;entryY=0;entryDx=0;entryDy=0;entryPerimeter=0;" edge="1" parent="1" target="8HtIomE0olUPSLRhpvDs-167">
          <mxGeometry relative="1" as="geometry">
            <mxPoint x="-476.33" y="1740" as="targetPoint" />
            <mxPoint x="-476" y="1710" as="sourcePoint" />
          </mxGeometry>
        </mxCell>
        <mxCell id="8HtIomE0olUPSLRhpvDs-155" value="TIDAK" style="edgeLabel;html=1;align=center;verticalAlign=middle;resizable=0;points=[];fontSize=12;fontFamily=Helvetica;" connectable="0" vertex="1" parent="8HtIomE0olUPSLRhpvDs-154">
          <mxGeometry x="-0.2976" y="3" relative="1" as="geometry">
            <mxPoint x="26" y="-1" as="offset" />
          </mxGeometry>
        </mxCell>
        <mxCell id="8HtIomE0olUPSLRhpvDs-163" style="edgeStyle=orthogonalEdgeStyle;rounded=0;orthogonalLoop=1;jettySize=auto;html=1;fontFamily=Helvetica;fontSize=12;exitX=0.5;exitY=1;exitDx=0;exitDy=0;entryX=0.465;entryY=0.046;entryDx=0;entryDy=0;entryPerimeter=0;" edge="1" parent="1" target="8HtIomE0olUPSLRhpvDs-164">
          <mxGeometry relative="1" as="geometry">
            <mxPoint x="-745.45" y="1680" as="sourcePoint" />
            <mxPoint x="-745" y="1780" as="targetPoint" />
          </mxGeometry>
        </mxCell>
        <mxCell id="8HtIomE0olUPSLRhpvDs-164" value="Mengisi frekuensi kunjungan ke tempat peninggalan sejarah/warisan budaya" style="rounded=0;whiteSpace=wrap;html=1;" vertex="1" parent="1">
          <mxGeometry x="-843" y="1795" width="210" height="60" as="geometry" />
        </mxCell>
        <mxCell id="8HtIomE0olUPSLRhpvDs-166" value="" style="endArrow=classic;html=1;rounded=0;entryX=0;entryY=0.5;entryDx=0;entryDy=0;entryPerimeter=0;" edge="1" parent="1" target="8HtIomE0olUPSLRhpvDs-167">
          <mxGeometry width="50" height="50" relative="1" as="geometry">
            <mxPoint x="-630" y="1825" as="sourcePoint" />
            <mxPoint x="-577" y="1844.44" as="targetPoint" />
          </mxGeometry>
        </mxCell>
        <mxCell id="8HtIomE0olUPSLRhpvDs-167" value=" apa jenis warisan budaya fisik yang paling sering dikunjungi?" style="strokeWidth=1;shape=mxgraph.flowchart.decision;strokeColor=default;align=center;verticalAlign=middle;whiteSpace=wrap;spacingTop=3;" vertex="1" parent="1">
          <mxGeometry x="-585" y="1760" width="220" height="130" as="geometry" />
        </mxCell>
        <mxCell id="8HtIomE0olUPSLRhpvDs-169" value="Mengisi jenis warisan budaya fisik yang dikunjungi" style="rounded=0;whiteSpace=wrap;html=1;" vertex="1" parent="1">
          <mxGeometry x="30" y="1120" width="210" height="50" as="geometry" />
        </mxCell>
        <mxCell id="8HtIomE0olUPSLRhpvDs-170" value="TIDAK" style="edgeLabel;html=1;align=center;verticalAlign=middle;resizable=0;points=[];fontSize=12;fontFamily=Helvetica;" connectable="0" vertex="1" parent="1">
          <mxGeometry x="50" y="1299.9966666666667" as="geometry">
            <mxPoint x="-319" y="1215" as="offset" />
          </mxGeometry>
        </mxCell>
        <mxCell id="8HtIomE0olUPSLRhpvDs-172" style="edgeStyle=orthogonalEdgeStyle;rounded=0;orthogonalLoop=1;jettySize=auto;html=1;entryX=0.5;entryY=0;entryDx=0;entryDy=0;entryPerimeter=0;" edge="1" parent="1" target="8HtIomE0olUPSLRhpvDs-177">
          <mxGeometry relative="1" as="geometry">
            <mxPoint x="145" y="1170" as="sourcePoint" />
            <mxPoint x="145" y="1225" as="targetPoint" />
          </mxGeometry>
        </mxCell>
        <mxCell id="8HtIomE0olUPSLRhpvDs-175" style="edgeStyle=orthogonalEdgeStyle;rounded=0;orthogonalLoop=1;jettySize=auto;html=1;fontFamily=Helvetica;fontSize=12;" edge="1" parent="1" source="8HtIomE0olUPSLRhpvDs-177">
          <mxGeometry relative="1" as="geometry">
            <mxPoint x="-20" y="1265" as="targetPoint" />
          </mxGeometry>
        </mxCell>
        <mxCell id="8HtIomE0olUPSLRhpvDs-176" value="YA" style="edgeLabel;html=1;align=center;verticalAlign=middle;resizable=0;points=[];fontSize=12;fontFamily=Helvetica;" connectable="0" vertex="1" parent="8HtIomE0olUPSLRhpvDs-175">
          <mxGeometry x="-0.235" y="5" relative="1" as="geometry">
            <mxPoint x="1" as="offset" />
          </mxGeometry>
        </mxCell>
        <mxCell id="8HtIomE0olUPSLRhpvDs-177" value=", Apa [Nama] menonton atau menikmati pertunjukan seni?" style="strokeWidth=1;shape=mxgraph.flowchart.decision;strokeColor=default;align=center;verticalAlign=middle;whiteSpace=wrap;spacingTop=3;" vertex="1" parent="1">
          <mxGeometry x="40" y="1220" width="210" height="90" as="geometry" />
        </mxCell>
        <mxCell id="8HtIomE0olUPSLRhpvDs-178" style="edgeStyle=orthogonalEdgeStyle;rounded=0;orthogonalLoop=1;jettySize=auto;html=1;fontFamily=Helvetica;fontSize=12;entryX=0.5;entryY=0;entryDx=0;entryDy=0;entryPerimeter=0;" edge="1" parent="1" source="8HtIomE0olUPSLRhpvDs-177" target="8HtIomE0olUPSLRhpvDs-265">
          <mxGeometry relative="1" as="geometry">
            <mxPoint x="144.99999999999955" y="1410" as="targetPoint" />
          </mxGeometry>
        </mxCell>
        <mxCell id="8HtIomE0olUPSLRhpvDs-179" value="TIDAK" style="edgeLabel;html=1;align=center;verticalAlign=middle;resizable=0;points=[];fontSize=12;fontFamily=Helvetica;" connectable="0" vertex="1" parent="8HtIomE0olUPSLRhpvDs-178">
          <mxGeometry x="-0.2976" y="3" relative="1" as="geometry">
            <mxPoint as="offset" />
          </mxGeometry>
        </mxCell>
        <mxCell id="8HtIomE0olUPSLRhpvDs-181" value="TIDAK" style="edgeLabel;html=1;align=center;verticalAlign=middle;resizable=0;points=[];fontSize=12;fontFamily=Helvetica;" connectable="0" vertex="1" parent="1">
          <mxGeometry x="145" y="1319.9966666666667" as="geometry">
            <mxPoint x="-560" y="984" as="offset" />
          </mxGeometry>
        </mxCell>
        <mxCell id="8HtIomE0olUPSLRhpvDs-182" value="TIDAK" style="edgeLabel;html=1;align=center;verticalAlign=middle;resizable=0;points=[];fontSize=12;fontFamily=Helvetica;" connectable="0" vertex="1" parent="1">
          <mxGeometry x="173" y="1359.9966666666667" as="geometry">
            <mxPoint x="-449" y="1119" as="offset" />
          </mxGeometry>
        </mxCell>
        <mxCell id="8HtIomE0olUPSLRhpvDs-183" value="TIDAK" style="edgeLabel;html=1;align=center;verticalAlign=middle;resizable=0;points=[];fontSize=12;fontFamily=Helvetica;" connectable="0" vertex="1" parent="1">
          <mxGeometry x="43" y="1409.9966666666667" as="geometry">
            <mxPoint x="-319" y="1215" as="offset" />
          </mxGeometry>
        </mxCell>
        <mxCell id="8HtIomE0olUPSLRhpvDs-184" value="Mengisi status menonton pertunjukan seni selama 1 tahun terakhir" style="rounded=0;whiteSpace=wrap;html=1;" vertex="1" parent="1">
          <mxGeometry x="-230" y="1230" width="210" height="60" as="geometry" />
        </mxCell>
        <mxCell id="8HtIomE0olUPSLRhpvDs-185" style="edgeStyle=orthogonalEdgeStyle;rounded=0;orthogonalLoop=1;jettySize=auto;html=1;entryX=0.5;entryY=0;entryDx=0;entryDy=0;fontFamily=Helvetica;fontSize=12;exitX=0.5;exitY=1;exitDx=0;exitDy=0;" edge="1" parent="1">
          <mxGeometry relative="1" as="geometry">
            <mxPoint x="-125.52999999999997" y="1292.5" as="sourcePoint" />
            <mxPoint x="-125.52999999999997" y="1347.5" as="targetPoint" />
          </mxGeometry>
        </mxCell>
        <mxCell id="8HtIomE0olUPSLRhpvDs-186" value="Mengisi jenis platform yang digunakan untuk menonton pertunjukan seni secara tidak langsung" style="rounded=0;whiteSpace=wrap;html=1;" vertex="1" parent="1">
          <mxGeometry x="-230" y="1350" width="210" height="60" as="geometry" />
        </mxCell>
        <mxCell id="8HtIomE0olUPSLRhpvDs-189" value="TIDAK" style="edgeLabel;html=1;align=center;verticalAlign=middle;resizable=0;points=[];fontSize=12;fontFamily=Helvetica;" connectable="0" vertex="1" parent="1">
          <mxGeometry x="50" y="1619.9966666666667" as="geometry">
            <mxPoint x="-319" y="1215" as="offset" />
          </mxGeometry>
        </mxCell>
        <mxCell id="8HtIomE0olUPSLRhpvDs-198" value="" style="endArrow=none;html=1;rounded=0;" edge="1" parent="1">
          <mxGeometry width="50" height="50" relative="1" as="geometry">
            <mxPoint x="-640" y="1560" as="sourcePoint" />
            <mxPoint x="-470" y="1560" as="targetPoint" />
          </mxGeometry>
        </mxCell>
        <mxCell id="8HtIomE0olUPSLRhpvDs-199" value="" style="endArrow=none;html=1;rounded=0;" edge="1" parent="1">
          <mxGeometry width="50" height="50" relative="1" as="geometry">
            <mxPoint x="-20" y="1379.33" as="sourcePoint" />
            <mxPoint x="140" y="1379" as="targetPoint" />
            <Array as="points">
              <mxPoint x="90" y="1379.33" />
            </Array>
          </mxGeometry>
        </mxCell>
        <mxCell id="8HtIomE0olUPSLRhpvDs-216" style="edgeStyle=orthogonalEdgeStyle;rounded=0;orthogonalLoop=1;jettySize=auto;html=1;exitX=0.923;exitY=0.56;exitDx=0;exitDy=0;exitPerimeter=0;entryX=0.5;entryY=0;entryDx=0;entryDy=0;entryPerimeter=0;" edge="1" parent="1" target="8HtIomE0olUPSLRhpvDs-226">
          <mxGeometry relative="1" as="geometry">
            <mxPoint x="260" y="1863" as="sourcePoint" />
            <mxPoint x="662" y="1160" as="targetPoint" />
            <Array as="points">
              <mxPoint x="260" y="1860" />
              <mxPoint x="356" y="1860" />
              <mxPoint x="356" y="1160" />
              <mxPoint x="745" y="1160" />
            </Array>
          </mxGeometry>
        </mxCell>
        <mxCell id="8HtIomE0olUPSLRhpvDs-219" value="YA" style="edgeLabel;html=1;align=center;verticalAlign=middle;resizable=0;points=[];fontSize=12;fontFamily=Helvetica;" connectable="0" vertex="1" parent="1">
          <mxGeometry x="680.0033333333331" y="1429" as="geometry">
            <mxPoint x="-139" y="264" as="offset" />
          </mxGeometry>
        </mxCell>
        <mxCell id="8HtIomE0olUPSLRhpvDs-226" value=" Apa [Nama] pernah melakukan permainan rakyat/kegiatan olahraga tradisional yang ada di Indonesia?" style="strokeWidth=1;shape=mxgraph.flowchart.decision;strokeColor=default;align=center;verticalAlign=middle;whiteSpace=wrap;spacingTop=3;" vertex="1" parent="1">
          <mxGeometry x="645" y="1244" width="200" height="120" as="geometry" />
        </mxCell>
        <mxCell id="8HtIomE0olUPSLRhpvDs-233" value="TIDAK" style="edgeLabel;html=1;align=center;verticalAlign=middle;resizable=0;points=[];fontSize=12;fontFamily=Helvetica;" connectable="0" vertex="1" parent="1">
          <mxGeometry x="650" y="1453.9966666666667" as="geometry">
            <mxPoint x="-319" y="1215" as="offset" />
          </mxGeometry>
        </mxCell>
        <mxCell id="8HtIomE0olUPSLRhpvDs-235" style="edgeStyle=orthogonalEdgeStyle;rounded=0;orthogonalLoop=1;jettySize=auto;html=1;fontFamily=Helvetica;fontSize=12;entryX=0.5;entryY=0;entryDx=0;entryDy=0;entryPerimeter=0;" edge="1" parent="1" target="8HtIomE0olUPSLRhpvDs-237">
          <mxGeometry relative="1" as="geometry">
            <mxPoint x="745" y="1414" as="targetPoint" />
            <mxPoint x="744" y="1364" as="sourcePoint" />
          </mxGeometry>
        </mxCell>
        <mxCell id="8HtIomE0olUPSLRhpvDs-237" value=" apa [Nama] pernah memanfaatkan media digital untuk membeli atau menggunakan produk tradisional?" style="strokeWidth=1;shape=mxgraph.flowchart.decision;strokeColor=default;align=center;verticalAlign=middle;whiteSpace=wrap;spacingTop=3;" vertex="1" parent="1">
          <mxGeometry x="645" y="1419" width="200" height="120" as="geometry" />
        </mxCell>
        <mxCell id="8HtIomE0olUPSLRhpvDs-238" value="TIDAK" style="edgeLabel;html=1;align=center;verticalAlign=middle;resizable=0;points=[];fontSize=12;fontFamily=Helvetica;" connectable="0" vertex="1" parent="1">
          <mxGeometry x="643" y="1418.9966666666667" as="geometry">
            <mxPoint x="-319" y="1215" as="offset" />
          </mxGeometry>
        </mxCell>
        <mxCell id="8HtIomE0olUPSLRhpvDs-239" value="TIDAK" style="edgeLabel;html=1;align=center;verticalAlign=middle;resizable=0;points=[];fontSize=12;fontFamily=Helvetica;" connectable="0" vertex="1" parent="1">
          <mxGeometry x="650" y="1628.9966666666667" as="geometry">
            <mxPoint x="-319" y="1215" as="offset" />
          </mxGeometry>
        </mxCell>
        <mxCell id="8HtIomE0olUPSLRhpvDs-240" value="Mengisi penggunaan TIK dalam menjual produk tradisional" style="rounded=0;whiteSpace=wrap;html=1;" vertex="1" parent="1">
          <mxGeometry x="640" y="1589" width="210" height="60" as="geometry" />
        </mxCell>
        <mxCell id="8HtIomE0olUPSLRhpvDs-241" style="edgeStyle=orthogonalEdgeStyle;rounded=0;orthogonalLoop=1;jettySize=auto;html=1;fontFamily=Helvetica;fontSize=12;entryX=0.5;entryY=0;entryDx=0;entryDy=0;entryPerimeter=0;" edge="1" parent="1">
          <mxGeometry relative="1" as="geometry">
            <mxPoint x="745" y="1589" as="targetPoint" />
            <mxPoint x="744" y="1539" as="sourcePoint" />
          </mxGeometry>
        </mxCell>
        <mxCell id="8HtIomE0olUPSLRhpvDs-245" value="TIDAK" style="edgeLabel;html=1;align=center;verticalAlign=middle;resizable=0;points=[];fontSize=12;fontFamily=Helvetica;" connectable="0" vertex="1" parent="1">
          <mxGeometry x="655" y="1338.9966666666667" as="geometry">
            <mxPoint x="-319" y="1215" as="offset" />
          </mxGeometry>
        </mxCell>
        <mxCell id="8HtIomE0olUPSLRhpvDs-246" style="edgeStyle=orthogonalEdgeStyle;rounded=0;orthogonalLoop=1;jettySize=auto;html=1;fontFamily=Helvetica;fontSize=12;" edge="1" parent="1">
          <mxGeometry relative="1" as="geometry">
            <mxPoint x="585" y="1304" as="targetPoint" />
            <mxPoint x="645" y="1304" as="sourcePoint" />
          </mxGeometry>
        </mxCell>
        <mxCell id="8HtIomE0olUPSLRhpvDs-247" value="YA" style="edgeLabel;html=1;align=center;verticalAlign=middle;resizable=0;points=[];fontSize=12;fontFamily=Helvetica;" connectable="0" vertex="1" parent="8HtIomE0olUPSLRhpvDs-246">
          <mxGeometry x="-0.235" y="5" relative="1" as="geometry">
            <mxPoint x="1" as="offset" />
          </mxGeometry>
        </mxCell>
        <mxCell id="8HtIomE0olUPSLRhpvDs-248" value="TIDAK" style="edgeLabel;html=1;align=center;verticalAlign=middle;resizable=0;points=[];fontSize=12;fontFamily=Helvetica;" connectable="0" vertex="1" parent="1">
          <mxGeometry x="648" y="1448.9966666666667" as="geometry">
            <mxPoint x="-319" y="1215" as="offset" />
          </mxGeometry>
        </mxCell>
        <mxCell id="8HtIomE0olUPSLRhpvDs-249" value="Mengisi keikutsertaan dalam kegiatan permainan rakyat/olahraga tradisional selama 1 tahun terakhir" style="rounded=0;whiteSpace=wrap;html=1;" vertex="1" parent="1">
          <mxGeometry x="375" y="1269" width="210" height="60" as="geometry" />
        </mxCell>
        <mxCell id="8HtIomE0olUPSLRhpvDs-250" style="edgeStyle=orthogonalEdgeStyle;rounded=0;orthogonalLoop=1;jettySize=auto;html=1;entryX=0.5;entryY=0;entryDx=0;entryDy=0;fontFamily=Helvetica;fontSize=12;exitX=0.5;exitY=1;exitDx=0;exitDy=0;" edge="1" parent="1" target="8HtIomE0olUPSLRhpvDs-251">
          <mxGeometry relative="1" as="geometry">
            <mxPoint x="479.47" y="1331.5" as="sourcePoint" />
            <mxPoint x="479.47" y="1386.5" as="targetPoint" />
          </mxGeometry>
        </mxCell>
        <mxCell id="8HtIomE0olUPSLRhpvDs-251" value="Mengisi frekuensi mengikuti kegiatan permainan rakyat/olahraga tradisional selama 1 tahun terakhir" style="rounded=0;whiteSpace=wrap;html=1;" vertex="1" parent="1">
          <mxGeometry x="375" y="1454" width="210" height="60" as="geometry" />
        </mxCell>
        <mxCell id="8HtIomE0olUPSLRhpvDs-255" value="" style="endArrow=classic;html=1;rounded=0;entryX=0;entryY=0.5;entryDx=0;entryDy=0;entryPerimeter=0;" edge="1" parent="1" target="8HtIomE0olUPSLRhpvDs-237">
          <mxGeometry width="50" height="50" relative="1" as="geometry">
            <mxPoint x="590" y="1479" as="sourcePoint" />
            <mxPoint x="630" y="1429" as="targetPoint" />
          </mxGeometry>
        </mxCell>
        <mxCell id="8HtIomE0olUPSLRhpvDs-256" value="YA" style="edgeLabel;html=1;align=center;verticalAlign=middle;resizable=0;points=[];fontSize=12;fontFamily=Helvetica;" connectable="0" vertex="1" parent="1">
          <mxGeometry x="17.66666666666697" y="1389.9999999999998" as="geometry" />
        </mxCell>
        <mxCell id="8HtIomE0olUPSLRhpvDs-257" style="edgeStyle=orthogonalEdgeStyle;rounded=0;orthogonalLoop=1;jettySize=auto;html=1;fontFamily=Helvetica;fontSize=12;exitX=0.5;exitY=1;exitDx=0;exitDy=0;" edge="1" parent="1">
          <mxGeometry relative="1" as="geometry">
            <mxPoint x="-125.52999999999997" y="1412.5" as="sourcePoint" />
            <mxPoint x="-126" y="1460" as="targetPoint" />
          </mxGeometry>
        </mxCell>
        <mxCell id="8HtIomE0olUPSLRhpvDs-258" value="Mengisi frekuensi menonton/menikmati pertunjukan seni selama 1 tahun terakhir secara langsung dan tidak langsung" style="rounded=0;whiteSpace=wrap;html=1;" vertex="1" parent="1">
          <mxGeometry x="-230" y="1460" width="210" height="60" as="geometry" />
        </mxCell>
        <mxCell id="8HtIomE0olUPSLRhpvDs-264" value="TIDAK" style="edgeLabel;html=1;align=center;verticalAlign=middle;resizable=0;points=[];fontSize=12;fontFamily=Helvetica;" connectable="0" vertex="1" parent="1">
          <mxGeometry x="50" y="1369.9966666666667" as="geometry">
            <mxPoint x="-319" y="1215" as="offset" />
          </mxGeometry>
        </mxCell>
        <mxCell id="8HtIomE0olUPSLRhpvDs-265" value=" apa [Nama] pernah terlibat dalam pertunjukan atau pameran atau produksi seni dan tradisi sebagai pelaku atau pendukung?" style="strokeWidth=1;shape=mxgraph.flowchart.decision;strokeColor=default;align=center;verticalAlign=middle;whiteSpace=wrap;spacingTop=3;" vertex="1" parent="1">
          <mxGeometry x="45" y="1430" width="200" height="120" as="geometry" />
        </mxCell>
        <mxCell id="8HtIomE0olUPSLRhpvDs-266" value="TIDAK" style="edgeLabel;html=1;align=center;verticalAlign=middle;resizable=0;points=[];fontSize=12;fontFamily=Helvetica;" connectable="0" vertex="1" parent="1">
          <mxGeometry x="43" y="1429.9966666666667" as="geometry">
            <mxPoint x="-319" y="1215" as="offset" />
          </mxGeometry>
        </mxCell>
        <mxCell id="8HtIomE0olUPSLRhpvDs-267" value="TIDAK" style="edgeLabel;html=1;align=center;verticalAlign=middle;resizable=0;points=[];fontSize=12;fontFamily=Helvetica;" connectable="0" vertex="1" parent="1">
          <mxGeometry x="50" y="1639.9966666666667" as="geometry">
            <mxPoint x="-319" y="1215" as="offset" />
          </mxGeometry>
        </mxCell>
        <mxCell id="8HtIomE0olUPSLRhpvDs-268" value="Mengisi keterlibatan dalam pertunjukan atau pameran atau produksi seni dan tradisi dalam periode 1 tahun terakhir" style="rounded=0;whiteSpace=wrap;html=1;" vertex="1" parent="1">
          <mxGeometry x="40" y="1600" width="210" height="60" as="geometry" />
        </mxCell>
        <mxCell id="8HtIomE0olUPSLRhpvDs-269" style="edgeStyle=orthogonalEdgeStyle;rounded=0;orthogonalLoop=1;jettySize=auto;html=1;fontFamily=Helvetica;fontSize=12;entryX=0.5;entryY=0;entryDx=0;entryDy=0;entryPerimeter=0;" edge="1" parent="1">
          <mxGeometry relative="1" as="geometry">
            <mxPoint x="145" y="1600" as="targetPoint" />
            <mxPoint x="144" y="1550" as="sourcePoint" />
          </mxGeometry>
        </mxCell>
        <mxCell id="8HtIomE0olUPSLRhpvDs-270" value="" style="endArrow=classic;html=1;rounded=0;entryX=0;entryY=0.5;entryDx=0;entryDy=0;entryPerimeter=0;" edge="1" parent="1" target="8HtIomE0olUPSLRhpvDs-265">
          <mxGeometry width="50" height="50" relative="1" as="geometry">
            <mxPoint x="-20" y="1490" as="sourcePoint" />
            <mxPoint x="30" y="1440" as="targetPoint" />
          </mxGeometry>
        </mxCell>
        <mxCell id="8HtIomE0olUPSLRhpvDs-271" style="edgeStyle=orthogonalEdgeStyle;rounded=0;orthogonalLoop=1;jettySize=auto;html=1;entryX=0.453;entryY=-0.082;entryDx=0;entryDy=0;entryPerimeter=0;" edge="1" parent="1" target="8HtIomE0olUPSLRhpvDs-273">
          <mxGeometry relative="1" as="geometry">
            <mxPoint x="140" y="1765" as="sourcePoint" />
            <mxPoint x="140" y="1815" as="targetPoint" />
          </mxGeometry>
        </mxCell>
        <mxCell id="8HtIomE0olUPSLRhpvDs-272" value="Apa jenis kegiatan yang [Nama] lakukan dalam pertunjukan seni yang melibatkan penggunaan media digital?" style="strokeWidth=1;shape=mxgraph.flowchart.decision;strokeColor=default;align=center;verticalAlign=middle;whiteSpace=wrap;spacingTop=3;" vertex="1" parent="1">
          <mxGeometry x="35" y="1690" width="210" height="90" as="geometry" />
        </mxCell>
        <mxCell id="8HtIomE0olUPSLRhpvDs-273" value="Mengisi jenis kegiatan yang menggunakan TIK dalam proses pertunjukan seni&lt;br/&gt;&lt;br/&gt;" style="rounded=0;whiteSpace=wrap;html=1;" vertex="1" parent="1">
          <mxGeometry x="45" y="1830" width="210" height="60" as="geometry" />
        </mxCell>
        <mxCell id="8HtIomE0olUPSLRhpvDs-274" style="edgeStyle=orthogonalEdgeStyle;rounded=0;orthogonalLoop=1;jettySize=auto;html=1;fontFamily=Helvetica;fontSize=12;" edge="1" parent="1">
          <mxGeometry relative="1" as="geometry">
            <mxPoint x="144" y="1690" as="targetPoint" />
            <mxPoint x="143.47" y="1655" as="sourcePoint" />
          </mxGeometry>
        </mxCell>
        <mxCell id="8HtIomE0olUPSLRhpvDs-295" value="TIDAK" style="edgeLabel;html=1;align=center;verticalAlign=middle;resizable=0;points=[];fontSize=12;fontFamily=Helvetica;" connectable="0" vertex="1" parent="1">
          <mxGeometry x="1180" y="1309.996666666667" as="geometry">
            <mxPoint x="-319" y="1215" as="offset" />
          </mxGeometry>
        </mxCell>
        <mxCell id="8HtIomE0olUPSLRhpvDs-296" style="edgeStyle=orthogonalEdgeStyle;rounded=0;orthogonalLoop=1;jettySize=auto;html=1;fontFamily=Helvetica;fontSize=12;" edge="1" parent="1" source="8HtIomE0olUPSLRhpvDs-298">
          <mxGeometry relative="1" as="geometry">
            <mxPoint x="1110" y="1275" as="targetPoint" />
          </mxGeometry>
        </mxCell>
        <mxCell id="8HtIomE0olUPSLRhpvDs-297" value="YA" style="edgeLabel;html=1;align=center;verticalAlign=middle;resizable=0;points=[];fontSize=12;fontFamily=Helvetica;" connectable="0" vertex="1" parent="8HtIomE0olUPSLRhpvDs-296">
          <mxGeometry x="-0.235" y="5" relative="1" as="geometry">
            <mxPoint x="1" as="offset" />
          </mxGeometry>
        </mxCell>
        <mxCell id="8HtIomE0olUPSLRhpvDs-298" value="  Apa [Nama] pernah mengikuti upacara adat?" style="strokeWidth=1;shape=mxgraph.flowchart.decision;strokeColor=default;align=center;verticalAlign=middle;whiteSpace=wrap;spacingTop=3;" vertex="1" parent="1">
          <mxGeometry x="1170" y="1230" width="210" height="90" as="geometry" />
        </mxCell>
        <mxCell id="8HtIomE0olUPSLRhpvDs-299" style="edgeStyle=orthogonalEdgeStyle;rounded=0;orthogonalLoop=1;jettySize=auto;html=1;fontFamily=Helvetica;fontSize=12;entryX=0.5;entryY=0;entryDx=0;entryDy=0;entryPerimeter=0;" edge="1" parent="1" source="8HtIomE0olUPSLRhpvDs-298" target="8HtIomE0olUPSLRhpvDs-312">
          <mxGeometry relative="1" as="geometry">
            <mxPoint x="1274.9999999999995" y="1420" as="targetPoint" />
          </mxGeometry>
        </mxCell>
        <mxCell id="8HtIomE0olUPSLRhpvDs-300" value="TIDAK" style="edgeLabel;html=1;align=center;verticalAlign=middle;resizable=0;points=[];fontSize=12;fontFamily=Helvetica;" connectable="0" vertex="1" parent="8HtIomE0olUPSLRhpvDs-299">
          <mxGeometry x="-0.2976" y="3" relative="1" as="geometry">
            <mxPoint as="offset" />
          </mxGeometry>
        </mxCell>
        <mxCell id="8HtIomE0olUPSLRhpvDs-301" value="TIDAK" style="edgeLabel;html=1;align=center;verticalAlign=middle;resizable=0;points=[];fontSize=12;fontFamily=Helvetica;" connectable="0" vertex="1" parent="1">
          <mxGeometry x="1275" y="1329.996666666667" as="geometry">
            <mxPoint x="-560" y="984" as="offset" />
          </mxGeometry>
        </mxCell>
        <mxCell id="8HtIomE0olUPSLRhpvDs-302" value="TIDAK" style="edgeLabel;html=1;align=center;verticalAlign=middle;resizable=0;points=[];fontSize=12;fontFamily=Helvetica;" connectable="0" vertex="1" parent="1">
          <mxGeometry x="1303" y="1369.996666666667" as="geometry">
            <mxPoint x="-449" y="1119" as="offset" />
          </mxGeometry>
        </mxCell>
        <mxCell id="8HtIomE0olUPSLRhpvDs-303" value="TIDAK" style="edgeLabel;html=1;align=center;verticalAlign=middle;resizable=0;points=[];fontSize=12;fontFamily=Helvetica;" connectable="0" vertex="1" parent="1">
          <mxGeometry x="1173" y="1419.996666666667" as="geometry">
            <mxPoint x="-319" y="1215" as="offset" />
          </mxGeometry>
        </mxCell>
        <mxCell id="8HtIomE0olUPSLRhpvDs-304" value="Mengisi keikutsertaan dalam upacara adat selama periode 1 tahun terakhir" style="rounded=0;whiteSpace=wrap;html=1;" vertex="1" parent="1">
          <mxGeometry x="900" y="1240" width="210" height="60" as="geometry" />
        </mxCell>
        <mxCell id="8HtIomE0olUPSLRhpvDs-305" style="edgeStyle=orthogonalEdgeStyle;rounded=0;orthogonalLoop=1;jettySize=auto;html=1;entryX=0.5;entryY=0;entryDx=0;entryDy=0;fontFamily=Helvetica;fontSize=12;exitX=0.5;exitY=1;exitDx=0;exitDy=0;" edge="1" parent="1">
          <mxGeometry relative="1" as="geometry">
            <mxPoint x="1004.47" y="1302.5" as="sourcePoint" />
            <mxPoint x="1004.47" y="1357.5" as="targetPoint" />
          </mxGeometry>
        </mxCell>
        <mxCell id="8HtIomE0olUPSLRhpvDs-322" value="" style="edgeStyle=orthogonalEdgeStyle;rounded=0;orthogonalLoop=1;jettySize=auto;html=1;" edge="1" parent="1" source="8HtIomE0olUPSLRhpvDs-306" target="8HtIomE0olUPSLRhpvDs-310">
          <mxGeometry relative="1" as="geometry" />
        </mxCell>
        <mxCell id="8HtIomE0olUPSLRhpvDs-306" value="MengisiJenis upacara adat yang paling sering diikuti" style="rounded=0;whiteSpace=wrap;html=1;" vertex="1" parent="1">
          <mxGeometry x="900" y="1360" width="210" height="60" as="geometry" />
        </mxCell>
        <mxCell id="8HtIomE0olUPSLRhpvDs-307" value="" style="endArrow=none;html=1;rounded=0;" edge="1" parent="1">
          <mxGeometry width="50" height="50" relative="1" as="geometry">
            <mxPoint x="1110" y="1389.33" as="sourcePoint" />
            <mxPoint x="1270" y="1389" as="targetPoint" />
            <Array as="points">
              <mxPoint x="1220" y="1389.33" />
            </Array>
          </mxGeometry>
        </mxCell>
        <mxCell id="8HtIomE0olUPSLRhpvDs-308" value="YA" style="edgeLabel;html=1;align=center;verticalAlign=middle;resizable=0;points=[];fontSize=12;fontFamily=Helvetica;" connectable="0" vertex="1" parent="1">
          <mxGeometry x="1147.666666666667" y="1400" as="geometry" />
        </mxCell>
        <mxCell id="8HtIomE0olUPSLRhpvDs-309" style="edgeStyle=orthogonalEdgeStyle;rounded=0;orthogonalLoop=1;jettySize=auto;html=1;fontFamily=Helvetica;fontSize=12;exitX=0.5;exitY=1;exitDx=0;exitDy=0;" edge="1" parent="1">
          <mxGeometry relative="1" as="geometry">
            <mxPoint x="1004.47" y="1422.5" as="sourcePoint" />
            <mxPoint x="1004" y="1470" as="targetPoint" />
          </mxGeometry>
        </mxCell>
        <mxCell id="8HtIomE0olUPSLRhpvDs-310" value="Mengisi frekuensi mengikuti upacara adat selama periode 1 tahun terakhir" style="rounded=0;whiteSpace=wrap;html=1;" vertex="1" parent="1">
          <mxGeometry x="900" y="1470" width="210" height="60" as="geometry" />
        </mxCell>
        <mxCell id="8HtIomE0olUPSLRhpvDs-311" value="TIDAK" style="edgeLabel;html=1;align=center;verticalAlign=middle;resizable=0;points=[];fontSize=12;fontFamily=Helvetica;" connectable="0" vertex="1" parent="1">
          <mxGeometry x="1180" y="1379.996666666667" as="geometry">
            <mxPoint x="-319" y="1215" as="offset" />
          </mxGeometry>
        </mxCell>
        <mxCell id="8HtIomE0olUPSLRhpvDs-312" value="Apa [Nama] pernah menyelenggarakan upacara adat?" style="strokeWidth=1;shape=mxgraph.flowchart.decision;strokeColor=default;align=center;verticalAlign=middle;whiteSpace=wrap;spacingTop=3;" vertex="1" parent="1">
          <mxGeometry x="1175" y="1440" width="200" height="120" as="geometry" />
        </mxCell>
        <mxCell id="8HtIomE0olUPSLRhpvDs-313" value="TIDAK" style="edgeLabel;html=1;align=center;verticalAlign=middle;resizable=0;points=[];fontSize=12;fontFamily=Helvetica;" connectable="0" vertex="1" parent="1">
          <mxGeometry x="1173" y="1439.996666666667" as="geometry">
            <mxPoint x="-319" y="1215" as="offset" />
          </mxGeometry>
        </mxCell>
        <mxCell id="8HtIomE0olUPSLRhpvDs-314" value="" style="endArrow=classic;html=1;rounded=0;entryX=0;entryY=0.5;entryDx=0;entryDy=0;entryPerimeter=0;" edge="1" parent="1" target="8HtIomE0olUPSLRhpvDs-312">
          <mxGeometry width="50" height="50" relative="1" as="geometry">
            <mxPoint x="1110" y="1500" as="sourcePoint" />
            <mxPoint x="1160" y="1450" as="targetPoint" />
          </mxGeometry>
        </mxCell>
        <mxCell id="8HtIomE0olUPSLRhpvDs-315" value="" style="endArrow=none;html=1;rounded=0;entryX=0.5;entryY=1;entryDx=0;entryDy=0;" edge="1" parent="1" target="8HtIomE0olUPSLRhpvDs-240">
          <mxGeometry width="50" height="50" relative="1" as="geometry">
            <mxPoint x="745" y="1840" as="sourcePoint" />
            <mxPoint x="750" y="1660" as="targetPoint" />
          </mxGeometry>
        </mxCell>
        <mxCell id="8HtIomE0olUPSLRhpvDs-316" value="TIDAK" style="edgeLabel;html=1;align=center;verticalAlign=middle;resizable=0;points=[];fontSize=12;fontFamily=Helvetica;" connectable="0" vertex="1" parent="1">
          <mxGeometry x="760" y="1189.9966666666664" as="geometry">
            <mxPoint x="32" y="205" as="offset" />
          </mxGeometry>
        </mxCell>
        <mxCell id="8HtIomE0olUPSLRhpvDs-318" style="edgeStyle=orthogonalEdgeStyle;rounded=0;orthogonalLoop=1;jettySize=auto;html=1;exitX=0.923;exitY=0.56;exitDx=0;exitDy=0;exitPerimeter=0;entryX=0.5;entryY=0;entryDx=0;entryDy=0;entryPerimeter=0;" edge="1" parent="1">
          <mxGeometry relative="1" as="geometry">
            <mxPoint x="785" y="1841.5" as="sourcePoint" />
            <mxPoint x="1270" y="1222.5" as="targetPoint" />
            <Array as="points">
              <mxPoint x="785" y="1838.5" />
              <mxPoint x="881" y="1838.5" />
              <mxPoint x="881" y="1138.5" />
              <mxPoint x="1270" y="1138.5" />
            </Array>
          </mxGeometry>
        </mxCell>
        <mxCell id="8HtIomE0olUPSLRhpvDs-320" value="" style="endArrow=none;html=1;rounded=0;" edge="1" parent="1">
          <mxGeometry width="50" height="50" relative="1" as="geometry">
            <mxPoint x="750" y="1840" as="sourcePoint" />
            <mxPoint x="780" y="1840" as="targetPoint" />
          </mxGeometry>
        </mxCell>
        <mxCell id="8HtIomE0olUPSLRhpvDs-326" value="" style="edgeStyle=orthogonalEdgeStyle;rounded=0;orthogonalLoop=1;jettySize=auto;html=1;" edge="1" parent="1" target="8HtIomE0olUPSLRhpvDs-328">
          <mxGeometry relative="1" as="geometry">
            <mxPoint x="1275" y="1560" as="sourcePoint" />
          </mxGeometry>
        </mxCell>
        <mxCell id="8HtIomE0olUPSLRhpvDs-327" style="edgeStyle=orthogonalEdgeStyle;rounded=0;orthogonalLoop=1;jettySize=auto;html=1;fontFamily=Helvetica;fontSize=12;exitX=0.5;exitY=1;exitDx=0;exitDy=0;" edge="1" parent="1">
          <mxGeometry relative="1" as="geometry">
            <mxPoint x="1274.47" y="1562.5" as="sourcePoint" />
            <mxPoint x="1274" y="1610" as="targetPoint" />
          </mxGeometry>
        </mxCell>
        <mxCell id="8HtIomE0olUPSLRhpvDs-328" value="Mengisi status penyelenggaraan upacara adat oleh orang tua" style="rounded=0;whiteSpace=wrap;html=1;" vertex="1" parent="1">
          <mxGeometry x="1170" y="1610" width="210" height="60" as="geometry" />
        </mxCell>
        <mxCell id="8HtIomE0olUPSLRhpvDs-329" style="edgeStyle=orthogonalEdgeStyle;rounded=0;orthogonalLoop=1;jettySize=auto;html=1;entryX=0.5;entryY=0;entryDx=0;entryDy=0;entryPerimeter=0;" edge="1" parent="1" target="8HtIomE0olUPSLRhpvDs-330">
          <mxGeometry relative="1" as="geometry">
            <mxPoint x="1275" y="1670" as="sourcePoint" />
          </mxGeometry>
        </mxCell>
        <mxCell id="8HtIomE0olUPSLRhpvDs-330" value="Selesai" style="strokeWidth=2;html=1;shape=mxgraph.flowchart.terminator;whiteSpace=wrap;" vertex="1" parent="1">
          <mxGeometry x="1225" y="1731" width="100" height="60" as="geometry" />
        </mxCell>
      </root>
    </mxGraphModel>
  </diagram>
</mxfile>
